<svg xmlns="http://www.w3.org/2000/svg" version="1.1" xmlns:xlink="http://www.w3.org/1999/xlink" xmlns:svgjs="http://svgjs.dev/svgjs" width="1440" height="560" preserveAspectRatio="none" viewBox="0 0 1440 560"><g mask="url(&quot;#SvgjsMask1008&quot;)" fill="none"><rect width="1440" height="560" x="0" y="0" fill="#0e2a47"></rect><path d="M-60.78 371.8L-60.78 371.8" stroke="#132e65" stroke-width="1.5"></path><path d="M-60.78 371.8L60.18 369.1" stroke="#132e65" stroke-width="1.5"></path><path d="M-38.8 537.97L-38.8 537.97" stroke="#132e65" stroke-width="1.5"></path><path d="M-38.8 537.97L102.11 543.73" stroke="#132e65" stroke-width="1.5"></path><path d="M-38.8 537.97L-50.33 689.83" stroke="#132e65" stroke-width="1.5"></path><path d="M-38.8 537.97L63.19 654.96" stroke="#132e65" stroke-width="1.5"></path><path d="M-38.8 537.97L-60.78 371.8" stroke="#132e65" stroke-width="1.5"></path><path d="M-38.8 537.97L60.18 369.1" stroke="#132e65" stroke-width="1.5"></path><path d="M-50.33 689.83L-50.33 689.83" stroke="#132e65" stroke-width="1.5"></path><path d="M-50.33 689.83L63.19 654.96" stroke="#132e65" stroke-width="1.5"></path><path d="M-50.33 689.83L102.11 543.73" stroke="#132e65" stroke-width="1.5"></path><path d="M-50.33 689.83L187.98 654.54" stroke="#132e65" stroke-width="1.5"></path><path d="M-50.33 689.83L191.34 501.08" stroke="#132e65" stroke-width="1.5"></path><path d="M-50.33 689.83L-60.78 371.8" stroke="#132e65" stroke-width="1.5"></path><path d="M60.18 369.1L60.18 369.1" stroke="#132e65" stroke-width="1.5"></path><path d="M60.18 369.1L102.11 543.73" stroke="#132e65" stroke-width="1.5"></path><path d="M60.18 369.1L191.34 501.08" stroke="#132e65" stroke-width="1.5"></path><path d="M60.18 369.1L247.31 360.55" stroke="#132e65" stroke-width="1.5"></path><path d="M102.11 543.73L102.11 543.73" stroke="#132e65" stroke-width="1.5"></path><path d="M102.11 543.73L191.34 501.08" stroke="#132e65" stroke-width="1.5"></path><path d="M102.11 543.73L63.19 654.96" stroke="#132e65" stroke-width="1.5"></path><path d="M102.11 543.73L187.98 654.54" stroke="#132e65" stroke-width="1.5"></path><path d="M63.19 654.96L63.19 654.96" stroke="#132e65" stroke-width="1.5"></path><path d="M63.19 654.96L187.98 654.54" stroke="#132e65" stroke-width="1.5"></path><path d="M247.31 360.55L247.31 360.55" stroke="#132e65" stroke-width="1.5"></path><path d="M247.31 360.55L191.34 501.08" stroke="#132e65" stroke-width="1.5"></path><path d="M247.31 360.55L410.19 341.24" stroke="#132e65" stroke-width="1.5"></path><path d="M191.34 501.08L191.34 501.08" stroke="#132e65" stroke-width="1.5"></path><path d="M187.98 654.54L187.98 654.54" stroke="#132e65" stroke-width="1.5"></path><path d="M187.98 654.54L191.34 501.08" stroke="#132e65" stroke-width="1.5"></path><path d="M187.98 654.54L341.49 532.76" stroke="#132e65" stroke-width="1.5"></path><path d="M410.19 341.24L410.19 341.24" stroke="#132e65" stroke-width="1.5"></path><path d="M410.19 341.24L513.92 366.63" stroke="#132e65" stroke-width="1.5"></path><path d="M341.49 532.76L341.49 532.76" stroke="#132e65" stroke-width="1.5"></path><path d="M341.49 532.76L191.34 501.08" stroke="#132e65" stroke-width="1.5"></path><path d="M341.49 532.76L408.74 684.47" stroke="#132e65" stroke-width="1.5"></path><path d="M341.49 532.76L524.92 557.77" stroke="#132e65" stroke-width="1.5"></path><path d="M408.74 684.47L408.74 684.47" stroke="#132e65" stroke-width="1.5"></path><path d="M408.74 684.47L522.66 703.65" stroke="#132e65" stroke-width="1.5"></path><path d="M408.74 684.47L524.92 557.77" stroke="#132e65" stroke-width="1.5"></path><path d="M408.74 684.47L187.98 654.54" stroke="#132e65" stroke-width="1.5"></path><path d="M513.92 366.63L513.92 366.63" stroke="#132e65" stroke-width="1.5"></path><path d="M513.92 366.63L654.21 371.06" stroke="#132e65" stroke-width="1.5"></path><path d="M524.92 557.77L524.92 557.77" stroke="#132e65" stroke-width="1.5"></path><path d="M524.92 557.77L643.67 515.51" stroke="#132e65" stroke-width="1.5"></path><path d="M524.92 557.77L522.66 703.65" stroke="#132e65" stroke-width="1.5"></path><path d="M524.92 557.77L638.9 651.79" stroke="#132e65" stroke-width="1.5"></path><path d="M522.66 703.65L522.66 703.65" stroke="#132e65" stroke-width="1.5"></path><path d="M522.66 703.65L638.9 651.79" stroke="#132e65" stroke-width="1.5"></path><path d="M522.66 703.65L643.67 515.51" stroke="#132e65" stroke-width="1.5"></path><path d="M522.66 703.65L341.49 532.76" stroke="#132e65" stroke-width="1.5"></path><path d="M522.66 703.65L809.27 673.83" stroke="#132e65" stroke-width="1.5"></path><path d="M699.73 221.92L699.73 221.92" stroke="#132e65" stroke-width="1.5"></path><path d="M699.73 221.92L796.08 199.79" stroke="#132e65" stroke-width="1.5"></path><path d="M699.73 221.92L654.21 371.06" stroke="#132e65" stroke-width="1.5"></path><path d="M699.73 221.92L834.08 101.3" stroke="#132e65" stroke-width="1.5"></path><path d="M654.21 371.06L654.21 371.06" stroke="#132e65" stroke-width="1.5"></path><path d="M654.21 371.06L643.67 515.51" stroke="#132e65" stroke-width="1.5"></path><path d="M654.21 371.06L845.82 362.37" stroke="#132e65" stroke-width="1.5"></path><path d="M654.21 371.06L796.08 199.79" stroke="#132e65" stroke-width="1.5"></path><path d="M643.67 515.51L643.67 515.51" stroke="#132e65" stroke-width="1.5"></path><path d="M643.67 515.51L638.9 651.79" stroke="#132e65" stroke-width="1.5"></path><path d="M643.67 515.51L513.92 366.63" stroke="#132e65" stroke-width="1.5"></path><path d="M643.67 515.51L809.27 673.83" stroke="#132e65" stroke-width="1.5"></path><path d="M638.9 651.79L638.9 651.79" stroke="#132e65" stroke-width="1.5"></path><path d="M638.9 651.79L809.27 673.83" stroke="#132e65" stroke-width="1.5"></path><path d="M638.9 651.79L408.74 684.47" stroke="#132e65" stroke-width="1.5"></path><path d="M638.9 651.79L654.21 371.06" stroke="#132e65" stroke-width="1.5"></path><path d="M834.08 101.3L834.08 101.3" stroke="#132e65" stroke-width="1.5"></path><path d="M834.08 101.3L796.08 199.79" stroke="#132e65" stroke-width="1.5"></path><path d="M834.08 101.3L1010.59 38.05" stroke="#132e65" stroke-width="1.5"></path><path d="M834.08 101.3L983.64 -79.88" stroke="#132e65" stroke-width="1.5"></path><path d="M796.08 199.79L796.08 199.79" stroke="#132e65" stroke-width="1.5"></path><path d="M845.82 362.37L845.82 362.37" stroke="#132e65" stroke-width="1.5"></path><path d="M845.82 362.37L960.93 373.17" stroke="#132e65" stroke-width="1.5"></path><path d="M845.82 362.37L796.08 199.79" stroke="#132e65" stroke-width="1.5"></path><path d="M809.27 673.83L809.27 673.83" stroke="#132e65" stroke-width="1.5"></path><path d="M809.27 673.83L974.9 637.97" stroke="#132e65" stroke-width="1.5"></path><path d="M983.64 -79.88L983.64 -79.88" stroke="#132e65" stroke-width="1.5"></path><path d="M983.64 -79.88L1010.59 38.05" stroke="#132e65" stroke-width="1.5"></path><path d="M983.64 -79.88L1146.96 -49.37" stroke="#132e65" stroke-width="1.5"></path><path d="M983.64 -79.88L1144.79 81.24" stroke="#132e65" stroke-width="1.5"></path><path d="M1010.59 38.05L1010.59 38.05" stroke="#132e65" stroke-width="1.5"></path><path d="M1010.59 38.05L1144.79 81.24" stroke="#132e65" stroke-width="1.5"></path><path d="M960.93 373.17L960.93 373.17" stroke="#132e65" stroke-width="1.5"></path><path d="M960.93 373.17L972.79 490.67" stroke="#132e65" stroke-width="1.5"></path><path d="M960.93 373.17L1123.46 377.84" stroke="#132e65" stroke-width="1.5"></path><path d="M960.93 373.17L1098.86 497.01" stroke="#132e65" stroke-width="1.5"></path><path d="M972.79 490.67L972.79 490.67" stroke="#132e65" stroke-width="1.5"></path><path d="M972.79 490.67L1098.86 497.01" stroke="#132e65" stroke-width="1.5"></path><path d="M972.79 490.67L974.9 637.97" stroke="#132e65" stroke-width="1.5"></path><path d="M974.9 637.97L974.9 637.97" stroke="#132e65" stroke-width="1.5"></path><path d="M974.9 637.97L1139.28 679.86" stroke="#132e65" stroke-width="1.5"></path><path d="M974.9 637.97L1098.86 497.01" stroke="#132e65" stroke-width="1.5"></path><path d="M974.9 637.97L960.93 373.17" stroke="#132e65" stroke-width="1.5"></path><path d="M974.9 637.97L1267.17 662.11" stroke="#132e65" stroke-width="1.5"></path><path d="M1146.96 -49.37L1146.96 -49.37" stroke="#132e65" stroke-width="1.5"></path><path d="M1146.96 -49.37L1243.53 -49.89" stroke="#132e65" stroke-width="1.5"></path><path d="M1144.79 81.24L1144.79 81.24" stroke="#132e65" stroke-width="1.5"></path><path d="M1144.79 81.24L1271.03 103.36" stroke="#132e65" stroke-width="1.5"></path><path d="M1144.79 81.24L1146.96 -49.37" stroke="#132e65" stroke-width="1.5"></path><path d="M1144.79 81.24L1128.04 211.43" stroke="#132e65" stroke-width="1.5"></path><path d="M1144.79 81.24L1243.53 -49.89" stroke="#132e65" stroke-width="1.5"></path><path d="M1128.04 211.43L1128.04 211.43" stroke="#132e65" stroke-width="1.5"></path><path d="M1128.04 211.43L1258.49 233.98" stroke="#132e65" stroke-width="1.5"></path><path d="M1128.04 211.43L1123.46 377.84" stroke="#132e65" stroke-width="1.5"></path><path d="M1123.46 377.84L1123.46 377.84" stroke="#132e65" stroke-width="1.5"></path><path d="M1123.46 377.84L1098.86 497.01" stroke="#132e65" stroke-width="1.5"></path><path d="M1098.86 497.01L1098.86 497.01" stroke="#132e65" stroke-width="1.5"></path><path d="M1098.86 497.01L1249.12 532.32" stroke="#132e65" stroke-width="1.5"></path><path d="M1098.86 497.01L1139.28 679.86" stroke="#132e65" stroke-width="1.5"></path><path d="M1139.28 679.86L1139.28 679.86" stroke="#132e65" stroke-width="1.5"></path><path d="M1139.28 679.86L1267.17 662.11" stroke="#132e65" stroke-width="1.5"></path><path d="M1139.28 679.86L1249.12 532.32" stroke="#132e65" stroke-width="1.5"></path><path d="M1139.28 679.86L972.79 490.67" stroke="#132e65" stroke-width="1.5"></path><path d="M1243.53 -49.89L1243.53 -49.89" stroke="#132e65" stroke-width="1.5"></path><path d="M1243.53 -49.89L1271.03 103.36" stroke="#132e65" stroke-width="1.5"></path><path d="M1243.53 -49.89L1436.92 -78.49" stroke="#132e65" stroke-width="1.5"></path><path d="M1243.53 -49.89L1448.33 80.9" stroke="#132e65" stroke-width="1.5"></path><path d="M1243.53 -49.89L1010.59 38.05" stroke="#132e65" stroke-width="1.5"></path><path d="M1271.03 103.36L1271.03 103.36" stroke="#132e65" stroke-width="1.5"></path><path d="M1271.03 103.36L1258.49 233.98" stroke="#132e65" stroke-width="1.5"></path><path d="M1258.49 233.98L1258.49 233.98" stroke="#132e65" stroke-width="1.5"></path><path d="M1258.49 233.98L1416.42 241.87" stroke="#132e65" stroke-width="1.5"></path><path d="M1294.02 392.08L1294.02 392.08" stroke="#132e65" stroke-width="1.5"></path><path d="M1294.02 392.08L1249.12 532.32" stroke="#132e65" stroke-width="1.5"></path><path d="M1294.02 392.08L1258.49 233.98" stroke="#132e65" stroke-width="1.5"></path><path d="M1294.02 392.08L1457.55 386.54" stroke="#132e65" stroke-width="1.5"></path><path d="M1294.02 392.08L1123.46 377.84" stroke="#132e65" stroke-width="1.5"></path><path d="M1249.12 532.32L1249.12 532.32" stroke="#132e65" stroke-width="1.5"></path><path d="M1249.12 532.32L1267.17 662.11" stroke="#132e65" stroke-width="1.5"></path><path d="M1249.12 532.32L1446.22 526.43" stroke="#132e65" stroke-width="1.5"></path><path d="M1267.17 662.11L1267.17 662.11" stroke="#132e65" stroke-width="1.5"></path><path d="M1267.17 662.11L1423.45 703.11" stroke="#132e65" stroke-width="1.5"></path><path d="M1436.92 -78.49L1436.92 -78.49" stroke="#132e65" stroke-width="1.5"></path><path d="M1436.92 -78.49L1550.19 -73.78" stroke="#132e65" stroke-width="1.5"></path><path d="M1436.92 -78.49L1448.33 80.9" stroke="#132e65" stroke-width="1.5"></path><path d="M1436.92 -78.49L1560.57 44.26" stroke="#132e65" stroke-width="1.5"></path><path d="M1448.33 80.9L1448.33 80.9" stroke="#132e65" stroke-width="1.5"></path><path d="M1448.33 80.9L1560.57 44.26" stroke="#132e65" stroke-width="1.5"></path><path d="M1448.33 80.9L1416.42 241.87" stroke="#132e65" stroke-width="1.5"></path><path d="M1448.33 80.9L1271.03 103.36" stroke="#132e65" stroke-width="1.5"></path><path d="M1416.42 241.87L1416.42 241.87" stroke="#132e65" stroke-width="1.5"></path><path d="M1416.42 241.87L1457.55 386.54" stroke="#132e65" stroke-width="1.5"></path><path d="M1457.55 386.54L1457.55 386.54" stroke="#132e65" stroke-width="1.5"></path><path d="M1457.55 386.54L1578.13 376.39" stroke="#132e65" stroke-width="1.5"></path><path d="M1457.55 386.54L1446.22 526.43" stroke="#132e65" stroke-width="1.5"></path><path d="M1446.22 526.43L1446.22 526.43" stroke="#132e65" stroke-width="1.5"></path><path d="M1446.22 526.43L1543.89 546.19" stroke="#132e65" stroke-width="1.5"></path><path d="M1446.22 526.43L1423.45 703.11" stroke="#132e65" stroke-width="1.5"></path><path d="M1446.22 526.43L1578.13 376.39" stroke="#132e65" stroke-width="1.5"></path><path d="M1446.22 526.43L1294.02 392.08" stroke="#132e65" stroke-width="1.5"></path><path d="M1423.45 703.11L1423.45 703.11" stroke="#132e65" stroke-width="1.5"></path><path d="M1423.45 703.11L1609.23 655.14" stroke="#132e65" stroke-width="1.5"></path><path d="M1423.45 703.11L1543.89 546.19" stroke="#132e65" stroke-width="1.5"></path><path d="M1423.45 703.11L1249.12 532.32" stroke="#132e65" stroke-width="1.5"></path><path d="M1550.19 -73.78L1550.19 -73.78" stroke="#132e65" stroke-width="1.5"></path><path d="M1550.19 -73.78L1560.57 44.26" stroke="#132e65" stroke-width="1.5"></path><path d="M1560.57 44.26L1560.57 44.26" stroke="#132e65" stroke-width="1.5"></path><path d="M1584.65 259.15L1584.65 259.15" stroke="#132e65" stroke-width="1.5"></path><path d="M1584.65 259.15L1578.13 376.39" stroke="#132e65" stroke-width="1.5"></path><path d="M1584.65 259.15L1416.42 241.87" stroke="#132e65" stroke-width="1.5"></path><path d="M1578.13 376.39L1578.13 376.39" stroke="#132e65" stroke-width="1.5"></path><path d="M1578.13 376.39L1543.89 546.19" stroke="#132e65" stroke-width="1.5"></path><path d="M1543.89 546.19L1543.89 546.19" stroke="#132e65" stroke-width="1.5"></path><path d="M1543.89 546.19L1609.23 655.14" stroke="#132e65" stroke-width="1.5"></path><path d="M1543.89 546.19L1457.55 386.54" stroke="#132e65" stroke-width="1.5"></path><path d="M1609.23 655.14L1609.23 655.14" stroke="#132e65" stroke-width="1.5"></path><path d="M1609.23 655.14L1446.22 526.43" stroke="#132e65" stroke-width="1.5"></path><path d="M1609.23 655.14L1578.13 376.39" stroke="#132e65" stroke-width="1.5"></path><path d="M1609.23 655.14L1457.55 386.54" stroke="#132e65" stroke-width="1.5"></path><circle r="5" cx="-60.78" cy="371.8" fill="#132e65"></circle><circle r="5" cx="-38.8" cy="537.97" fill="#132e65"></circle><circle r="5" cx="-50.33" cy="689.83" fill="#132e65"></circle><circle r="5" cx="60.18" cy="369.1" fill="#132e65"></circle><circle r="5" cx="102.11" cy="543.73" fill="#132e65"></circle><circle r="5" cx="63.19" cy="654.96" fill="#132e65"></circle><circle r="5" cx="247.31" cy="360.55" fill="#132e65"></circle><circle r="5" cx="191.34" cy="501.08" fill="#132e65"></circle><circle r="5" cx="187.98" cy="654.54" fill="#132e65"></circle><circle r="5" cx="410.19" cy="341.24" fill="#132e65"></circle><circle r="5" cx="341.49" cy="532.76" fill="#132e65"></circle><circle r="5" cx="408.74" cy="684.47" fill="#132e65"></circle><circle r="5" cx="513.92" cy="366.63" fill="#132e65"></circle><circle r="5" cx="524.92" cy="557.77" fill="#132e65"></circle><circle r="5" cx="522.66" cy="703.65" fill="#132e65"></circle><circle r="5" cx="699.73" cy="221.92" fill="#132e65"></circle><circle r="5" cx="654.21" cy="371.06" fill="#132e65"></circle><circle r="5" cx="643.67" cy="515.51" fill="#132e65"></circle><circle r="5" cx="638.9" cy="651.79" fill="#132e65"></circle><circle r="5" cx="834.08" cy="101.3" fill="#132e65"></circle><circle r="5" cx="796.08" cy="199.79" fill="#132e65"></circle><circle r="5" cx="845.82" cy="362.37" fill="#132e65"></circle><circle r="5" cx="809.27" cy="673.83" fill="#132e65"></circle><circle r="5" cx="983.64" cy="-79.88" fill="#132e65"></circle><circle r="5" cx="1010.59" cy="38.05" fill="#132e65"></circle><circle r="5" cx="960.93" cy="373.17" fill="#132e65"></circle><circle r="5" cx="972.79" cy="490.67" fill="#132e65"></circle><circle r="5" cx="974.9" cy="637.97" fill="#132e65"></circle><circle r="5" cx="1146.96" cy="-49.37" fill="#132e65"></circle><circle r="5" cx="1144.79" cy="81.24" fill="#132e65"></circle><circle r="5" cx="1128.04" cy="211.43" fill="#132e65"></circle><circle r="5" cx="1123.46" cy="377.84" fill="#132e65"></circle><circle r="5" cx="1098.86" cy="497.01" fill="#132e65"></circle><circle r="5" cx="1139.28" cy="679.86" fill="#132e65"></circle><circle r="5" cx="1243.53" cy="-49.89" fill="#132e65"></circle><circle r="5" cx="1271.03" cy="103.36" fill="#132e65"></circle><circle r="5" cx="1258.49" cy="233.98" fill="#132e65"></circle><circle r="5" cx="1294.02" cy="392.08" fill="#132e65"></circle><circle r="5" cx="1249.12" cy="532.32" fill="#132e65"></circle><circle r="5" cx="1267.17" cy="662.11" fill="#132e65"></circle><circle r="5" cx="1436.92" cy="-78.49" fill="#132e65"></circle><circle r="5" cx="1448.33" cy="80.9" fill="#132e65"></circle><circle r="5" cx="1416.42" cy="241.87" fill="#132e65"></circle><circle r="5" cx="1457.55" cy="386.54" fill="#132e65"></circle><circle r="5" cx="1446.22" cy="526.43" fill="#132e65"></circle><circle r="5" cx="1423.45" cy="703.11" fill="#132e65"></circle><circle r="5" cx="1550.19" cy="-73.78" fill="#132e65"></circle><circle r="5" cx="1560.57" cy="44.26" fill="#132e65"></circle><circle r="5" cx="1584.65" cy="259.15" fill="#132e65"></circle><circle r="5" cx="1578.13" cy="376.39" fill="#132e65"></circle><circle r="5" cx="1543.89" cy="546.19" fill="#132e65"></circle><circle r="5" cx="1609.23" cy="655.14" fill="#132e65"></circle><path d="M501.73 709.14L501.73 709.14" stroke="hsl(228.5, 77.2%, 51.5%)" stroke-width="1.5"></path><path d="M501.73 709.14L365.29 694.83" stroke="hsl(228.5, 77.2%, 51.5%)" stroke-width="1.5"></path><path d="M501.73 709.14L668.94 683.52" stroke="hsl(228.5, 77.2%, 51.5%)" stroke-width="1.5"></path><path d="M1297.04 551.45L1297.04 551.45" stroke="hsl(228.5, 77.2%, 51.5%)" stroke-width="1.5"></path><path d="M1297.04 551.45L1438.68 536.48" stroke="hsl(228.5, 77.2%, 51.5%)" stroke-width="1.5"></path><path d="M1297.04 551.45L1277.79 707.56" stroke="hsl(228.5, 77.2%, 51.5%)" stroke-width="1.5"></path><path d="M1399.26 -84.9L1399.26 -84.9" stroke="hsl(228.5, 77.2%, 51.5%)" stroke-width="1.5"></path><path d="M1399.26 -84.9L1258.03 -101.7" stroke="hsl(228.5, 77.2%, 51.5%)" stroke-width="1.5"></path><path d="M1399.26 -84.9L1568.03 -56.82" stroke="hsl(228.5, 77.2%, 51.5%)" stroke-width="1.5"></path><path d="M1585.19 544.03L1585.19 544.03" stroke="hsl(228.5, 77.2%, 51.5%)" stroke-width="1.5"></path><path d="M1585.19 544.03L1438.68 536.48" stroke="hsl(228.5, 77.2%, 51.5%)" stroke-width="1.5"></path><path d="M1585.19 544.03L1554.34 687.48" stroke="hsl(228.5, 77.2%, 51.5%)" stroke-width="1.5"></path><path d="M1585.19 544.03L1582.53 384.06" stroke="hsl(228.5, 77.2%, 51.5%)" stroke-width="1.5"></path><path d="M1585.19 544.03L1428.21 383.88" stroke="hsl(228.5, 77.2%, 51.5%)" stroke-width="1.5"></path><path d="M1585.19 544.03L1297.04 551.45" stroke="hsl(228.5, 77.2%, 51.5%)" stroke-width="1.5"></path><path d="M-108.35 673.8L-108.35 673.8" stroke="hsl(228.5, 77.2%, 51.5%)" stroke-width="1.5"></path><path d="M-108.35 673.8L81.33 689.32" stroke="hsl(228.5, 77.2%, 51.5%)" stroke-width="1.5"></path><path d="M-108.35 673.8L59.54 537.54" stroke="hsl(228.5, 77.2%, 51.5%)" stroke-width="1.5"></path><path d="M-108.35 673.8L254.61 667.68" stroke="hsl(228.5, 77.2%, 51.5%)" stroke-width="1.5"></path><path d="M-108.35 673.8L249.4 559.26" stroke="hsl(228.5, 77.2%, 51.5%)" stroke-width="1.5"></path><path d="M-108.35 673.8L365.29 694.83" stroke="hsl(228.5, 77.2%, 51.5%)" stroke-width="1.5"></path><path d="M-108.35 673.8L358.29 539.21" stroke="hsl(228.5, 77.2%, 51.5%)" stroke-width="1.5"></path><path d="M59.54 537.54L59.54 537.54" stroke="hsl(228.5, 77.2%, 51.5%)" stroke-width="1.5"></path><path d="M59.54 537.54L81.33 689.32" stroke="hsl(228.5, 77.2%, 51.5%)" stroke-width="1.5"></path><path d="M81.33 689.32L81.33 689.32" stroke="hsl(228.5, 77.2%, 51.5%)" stroke-width="1.5"></path><path d="M81.33 689.32L254.61 667.68" stroke="hsl(228.5, 77.2%, 51.5%)" stroke-width="1.5"></path><path d="M249.4 559.26L249.4 559.26" stroke="hsl(228.5, 77.2%, 51.5%)" stroke-width="1.5"></path><path d="M249.4 559.26L254.61 667.68" stroke="hsl(228.5, 77.2%, 51.5%)" stroke-width="1.5"></path><path d="M249.4 559.26L358.29 539.21" stroke="hsl(228.5, 77.2%, 51.5%)" stroke-width="1.5"></path><path d="M249.4 559.26L365.29 694.83" stroke="hsl(228.5, 77.2%, 51.5%)" stroke-width="1.5"></path><path d="M249.4 559.26L59.54 537.54" stroke="hsl(228.5, 77.2%, 51.5%)" stroke-width="1.5"></path><path d="M249.4 559.26L81.33 689.32" stroke="hsl(228.5, 77.2%, 51.5%)" stroke-width="1.5"></path><path d="M249.4 559.26L494.42 529.87" stroke="hsl(228.5, 77.2%, 51.5%)" stroke-width="1.5"></path><path d="M254.61 667.68L254.61 667.68" stroke="hsl(228.5, 77.2%, 51.5%)" stroke-width="1.5"></path><path d="M254.61 667.68L365.29 694.83" stroke="hsl(228.5, 77.2%, 51.5%)" stroke-width="1.5"></path><path d="M358.29 539.21L358.29 539.21" stroke="hsl(228.5, 77.2%, 51.5%)" stroke-width="1.5"></path><path d="M358.29 539.21L494.42 529.87" stroke="hsl(228.5, 77.2%, 51.5%)" stroke-width="1.5"></path><path d="M358.29 539.21L365.29 694.83" stroke="hsl(228.5, 77.2%, 51.5%)" stroke-width="1.5"></path><path d="M358.29 539.21L254.61 667.68" stroke="hsl(228.5, 77.2%, 51.5%)" stroke-width="1.5"></path><path d="M358.29 539.21L501.73 709.14" stroke="hsl(228.5, 77.2%, 51.5%)" stroke-width="1.5"></path><path d="M365.29 694.83L365.29 694.83" stroke="hsl(228.5, 77.2%, 51.5%)" stroke-width="1.5"></path><path d="M494.42 529.87L494.42 529.87" stroke="hsl(228.5, 77.2%, 51.5%)" stroke-width="1.5"></path><path d="M494.42 529.87L501.73 709.14" stroke="hsl(228.5, 77.2%, 51.5%)" stroke-width="1.5"></path><path d="M706.7 357.64L706.7 357.64" stroke="hsl(228.5, 77.2%, 51.5%)" stroke-width="1.5"></path><path d="M706.7 357.64L789.05 365.14" stroke="hsl(228.5, 77.2%, 51.5%)" stroke-width="1.5"></path><path d="M706.7 357.64L703.45 533.08" stroke="hsl(228.5, 77.2%, 51.5%)" stroke-width="1.5"></path><path d="M706.7 357.64L848.81 511.57" stroke="hsl(228.5, 77.2%, 51.5%)" stroke-width="1.5"></path><path d="M706.7 357.64L946.71 352.44" stroke="hsl(228.5, 77.2%, 51.5%)" stroke-width="1.5"></path><path d="M706.7 357.64L494.42 529.87" stroke="hsl(228.5, 77.2%, 51.5%)" stroke-width="1.5"></path><path d="M706.7 357.64L668.94 683.52" stroke="hsl(228.5, 77.2%, 51.5%)" stroke-width="1.5"></path><path d="M703.45 533.08L703.45 533.08" stroke="hsl(228.5, 77.2%, 51.5%)" stroke-width="1.5"></path><path d="M703.45 533.08L848.81 511.57" stroke="hsl(228.5, 77.2%, 51.5%)" stroke-width="1.5"></path><path d="M703.45 533.08L668.94 683.52" stroke="hsl(228.5, 77.2%, 51.5%)" stroke-width="1.5"></path><path d="M668.94 683.52L668.94 683.52" stroke="hsl(228.5, 77.2%, 51.5%)" stroke-width="1.5"></path><path d="M789.05 365.14L789.05 365.14" stroke="hsl(228.5, 77.2%, 51.5%)" stroke-width="1.5"></path><path d="M848.81 511.57L848.81 511.57" stroke="hsl(228.5, 77.2%, 51.5%)" stroke-width="1.5"></path><path d="M848.81 511.57L983.8 551.56" stroke="hsl(228.5, 77.2%, 51.5%)" stroke-width="1.5"></path><path d="M848.81 511.57L789.05 365.14" stroke="hsl(228.5, 77.2%, 51.5%)" stroke-width="1.5"></path><path d="M848.81 511.57L946.71 352.44" stroke="hsl(228.5, 77.2%, 51.5%)" stroke-width="1.5"></path><path d="M848.81 511.57L849.43 704.65" stroke="hsl(228.5, 77.2%, 51.5%)" stroke-width="1.5"></path><path d="M849.43 704.65L849.43 704.65" stroke="hsl(228.5, 77.2%, 51.5%)" stroke-width="1.5"></path><path d="M849.43 704.65L668.94 683.52" stroke="hsl(228.5, 77.2%, 51.5%)" stroke-width="1.5"></path><path d="M849.43 704.65L983.8 551.56" stroke="hsl(228.5, 77.2%, 51.5%)" stroke-width="1.5"></path><path d="M849.43 704.65L703.45 533.08" stroke="hsl(228.5, 77.2%, 51.5%)" stroke-width="1.5"></path><path d="M946.71 352.44L946.71 352.44" stroke="hsl(228.5, 77.2%, 51.5%)" stroke-width="1.5"></path><path d="M946.71 352.44L789.05 365.14" stroke="hsl(228.5, 77.2%, 51.5%)" stroke-width="1.5"></path><path d="M946.71 352.44L1105.92 393.98" stroke="hsl(228.5, 77.2%, 51.5%)" stroke-width="1.5"></path><path d="M946.71 352.44L983.8 551.56" stroke="hsl(228.5, 77.2%, 51.5%)" stroke-width="1.5"></path><path d="M946.71 352.44L1134.32 489.23" stroke="hsl(228.5, 77.2%, 51.5%)" stroke-width="1.5"></path><path d="M983.8 551.56L983.8 551.56" stroke="hsl(228.5, 77.2%, 51.5%)" stroke-width="1.5"></path><path d="M983.8 551.56L1134.32 489.23" stroke="hsl(228.5, 77.2%, 51.5%)" stroke-width="1.5"></path><path d="M983.8 551.56L1105.92 393.98" stroke="hsl(228.5, 77.2%, 51.5%)" stroke-width="1.5"></path><path d="M983.8 551.56L1139.55 693.6" stroke="hsl(228.5, 77.2%, 51.5%)" stroke-width="1.5"></path><path d="M1160.21 223.07L1160.21 223.07" stroke="hsl(228.5, 77.2%, 51.5%)" stroke-width="1.5"></path><path d="M1160.21 223.07L1298.32 197.75" stroke="hsl(228.5, 77.2%, 51.5%)" stroke-width="1.5"></path><path d="M1160.21 223.07L1105.92 393.98" stroke="hsl(228.5, 77.2%, 51.5%)" stroke-width="1.5"></path><path d="M1160.21 223.07L1265.57 59.71" stroke="hsl(228.5, 77.2%, 51.5%)" stroke-width="1.5"></path><path d="M1160.21 223.07L946.71 352.44" stroke="hsl(228.5, 77.2%, 51.5%)" stroke-width="1.5"></path><path d="M1160.21 223.07L1134.32 489.23" stroke="hsl(228.5, 77.2%, 51.5%)" stroke-width="1.5"></path><path d="M1160.21 223.07L1442.45 255.64" stroke="hsl(228.5, 77.2%, 51.5%)" stroke-width="1.5"></path><path d="M1105.92 393.98L1105.92 393.98" stroke="hsl(228.5, 77.2%, 51.5%)" stroke-width="1.5"></path><path d="M1105.92 393.98L1134.32 489.23" stroke="hsl(228.5, 77.2%, 51.5%)" stroke-width="1.5"></path><path d="M1105.92 393.98L1297.04 551.45" stroke="hsl(228.5, 77.2%, 51.5%)" stroke-width="1.5"></path><path d="M1134.32 489.23L1134.32 489.23" stroke="hsl(228.5, 77.2%, 51.5%)" stroke-width="1.5"></path><path d="M1134.32 489.23L1297.04 551.45" stroke="hsl(228.5, 77.2%, 51.5%)" stroke-width="1.5"></path><path d="M1134.32 489.23L1139.55 693.6" stroke="hsl(228.5, 77.2%, 51.5%)" stroke-width="1.5"></path><path d="M1134.32 489.23L1277.79 707.56" stroke="hsl(228.5, 77.2%, 51.5%)" stroke-width="1.5"></path><path d="M1139.55 693.6L1139.55 693.6" stroke="hsl(228.5, 77.2%, 51.5%)" stroke-width="1.5"></path><path d="M1139.55 693.6L1277.79 707.56" stroke="hsl(228.5, 77.2%, 51.5%)" stroke-width="1.5"></path><path d="M1139.55 693.6L1297.04 551.45" stroke="hsl(228.5, 77.2%, 51.5%)" stroke-width="1.5"></path><path d="M1139.55 693.6L849.43 704.65" stroke="hsl(228.5, 77.2%, 51.5%)" stroke-width="1.5"></path><path d="M1258.03 -101.7L1258.03 -101.7" stroke="hsl(228.5, 77.2%, 51.5%)" stroke-width="1.5"></path><path d="M1258.03 -101.7L1265.57 59.71" stroke="hsl(228.5, 77.2%, 51.5%)" stroke-width="1.5"></path><path d="M1258.03 -101.7L1453 79.22" stroke="hsl(228.5, 77.2%, 51.5%)" stroke-width="1.5"></path><path d="M1265.57 59.71L1265.57 59.71" stroke="hsl(228.5, 77.2%, 51.5%)" stroke-width="1.5"></path><path d="M1265.57 59.71L1298.32 197.75" stroke="hsl(228.5, 77.2%, 51.5%)" stroke-width="1.5"></path><path d="M1265.57 59.71L1453 79.22" stroke="hsl(228.5, 77.2%, 51.5%)" stroke-width="1.5"></path><path d="M1298.32 197.75L1298.32 197.75" stroke="hsl(228.5, 77.2%, 51.5%)" stroke-width="1.5"></path><path d="M1298.32 197.75L1442.45 255.64" stroke="hsl(228.5, 77.2%, 51.5%)" stroke-width="1.5"></path><path d="M1298.32 197.75L1453 79.22" stroke="hsl(228.5, 77.2%, 51.5%)" stroke-width="1.5"></path><path d="M1298.32 197.75L1428.21 383.88" stroke="hsl(228.5, 77.2%, 51.5%)" stroke-width="1.5"></path><path d="M1277.79 707.56L1277.79 707.56" stroke="hsl(228.5, 77.2%, 51.5%)" stroke-width="1.5"></path><path d="M1277.79 707.56L1438.68 536.48" stroke="hsl(228.5, 77.2%, 51.5%)" stroke-width="1.5"></path><path d="M1453 79.22L1453 79.22" stroke="hsl(228.5, 77.2%, 51.5%)" stroke-width="1.5"></path><path d="M1453 79.22L1576.85 83.33" stroke="hsl(228.5, 77.2%, 51.5%)" stroke-width="1.5"></path><path d="M1453 79.22L1399.26 -84.9" stroke="hsl(228.5, 77.2%, 51.5%)" stroke-width="1.5"></path><path d="M1453 79.22L1442.45 255.64" stroke="hsl(228.5, 77.2%, 51.5%)" stroke-width="1.5"></path><path d="M1442.45 255.64L1442.45 255.64" stroke="hsl(228.5, 77.2%, 51.5%)" stroke-width="1.5"></path><path d="M1442.45 255.64L1428.21 383.88" stroke="hsl(228.5, 77.2%, 51.5%)" stroke-width="1.5"></path><path d="M1428.21 383.88L1428.21 383.88" stroke="hsl(228.5, 77.2%, 51.5%)" stroke-width="1.5"></path><path d="M1428.21 383.88L1438.68 536.48" stroke="hsl(228.5, 77.2%, 51.5%)" stroke-width="1.5"></path><path d="M1428.21 383.88L1582.53 384.06" stroke="hsl(228.5, 77.2%, 51.5%)" stroke-width="1.5"></path><path d="M1428.21 383.88L1297.04 551.45" stroke="hsl(228.5, 77.2%, 51.5%)" stroke-width="1.5"></path><path d="M1438.68 536.48L1438.68 536.48" stroke="hsl(228.5, 77.2%, 51.5%)" stroke-width="1.5"></path><path d="M1438.68 536.48L1554.34 687.48" stroke="hsl(228.5, 77.2%, 51.5%)" stroke-width="1.5"></path><path d="M1438.68 536.48L1582.53 384.06" stroke="hsl(228.5, 77.2%, 51.5%)" stroke-width="1.5"></path><path d="M1568.03 -56.82L1568.03 -56.82" stroke="hsl(228.5, 77.2%, 51.5%)" stroke-width="1.5"></path><path d="M1568.03 -56.82L1576.85 83.33" stroke="hsl(228.5, 77.2%, 51.5%)" stroke-width="1.5"></path><path d="M1568.03 -56.82L1453 79.22" stroke="hsl(228.5, 77.2%, 51.5%)" stroke-width="1.5"></path><path d="M1576.85 83.33L1576.85 83.33" stroke="hsl(228.5, 77.2%, 51.5%)" stroke-width="1.5"></path><path d="M1576.85 83.33L1605.79 203.03" stroke="hsl(228.5, 77.2%, 51.5%)" stroke-width="1.5"></path><path d="M1576.85 83.33L1442.45 255.64" stroke="hsl(228.5, 77.2%, 51.5%)" stroke-width="1.5"></path><path d="M1576.85 83.33L1399.26 -84.9" stroke="hsl(228.5, 77.2%, 51.5%)" stroke-width="1.5"></path><path d="M1576.85 83.33L1582.53 384.06" stroke="hsl(228.5, 77.2%, 51.5%)" stroke-width="1.5"></path><path d="M1605.79 203.03L1605.79 203.03" stroke="hsl(228.5, 77.2%, 51.5%)" stroke-width="1.5"></path><path d="M1605.79 203.03L1442.45 255.64" stroke="hsl(228.5, 77.2%, 51.5%)" stroke-width="1.5"></path><path d="M1605.79 203.03L1582.53 384.06" stroke="hsl(228.5, 77.2%, 51.5%)" stroke-width="1.5"></path><path d="M1605.79 203.03L1453 79.22" stroke="hsl(228.5, 77.2%, 51.5%)" stroke-width="1.5"></path><path d="M1582.53 384.06L1582.53 384.06" stroke="hsl(228.5, 77.2%, 51.5%)" stroke-width="1.5"></path><path d="M1582.53 384.06L1442.45 255.64" stroke="hsl(228.5, 77.2%, 51.5%)" stroke-width="1.5"></path><path d="M1554.34 687.48L1554.34 687.48" stroke="hsl(228.5, 77.2%, 51.5%)" stroke-width="1.5"></path><circle r="25" cx="501.73" cy="709.14" fill="url(&quot;#SvgjsRadialGradient1009&quot;)"></circle><circle r="25" cx="1297.04" cy="551.45" fill="url(&quot;#SvgjsRadialGradient1009&quot;)"></circle><circle r="25" cx="1399.26" cy="-84.9" fill="url(&quot;#SvgjsRadialGradient1009&quot;)"></circle><circle r="25" cx="1585.19" cy="544.03" fill="url(&quot;#SvgjsRadialGradient1009&quot;)"></circle><circle r="5" cx="-108.35" cy="673.8" fill="#8b9ad9"></circle><circle r="5" cx="59.54" cy="537.54" fill="#8b9ad9"></circle><circle r="5" cx="81.33" cy="689.32" fill="#8b9ad9"></circle><circle r="5" cx="249.4" cy="559.26" fill="#8b9ad9"></circle><circle r="5" cx="254.61" cy="667.68" fill="#8b9ad9"></circle><circle r="5" cx="358.29" cy="539.21" fill="#8b9ad9"></circle><circle r="5" cx="365.29" cy="694.83" fill="#8b9ad9"></circle><circle r="5" cx="494.42" cy="529.87" fill="#8b9ad9"></circle><circle r="5" cx="706.7" cy="357.64" fill="#8b9ad9"></circle><circle r="5" cx="703.45" cy="533.08" fill="#8b9ad9"></circle><circle r="5" cx="668.94" cy="683.52" fill="#8b9ad9"></circle><circle r="5" cx="789.05" cy="365.14" fill="#8b9ad9"></circle><circle r="5" cx="848.81" cy="511.57" fill="#8b9ad9"></circle><circle r="5" cx="849.43" cy="704.65" fill="#8b9ad9"></circle><circle r="5" cx="946.71" cy="352.44" fill="#8b9ad9"></circle><circle r="5" cx="983.8" cy="551.56" fill="#8b9ad9"></circle><circle r="5" cx="1160.21" cy="223.07" fill="#8b9ad9"></circle><circle r="5" cx="1105.92" cy="393.98" fill="#8b9ad9"></circle><circle r="5" cx="1134.32" cy="489.23" fill="#8b9ad9"></circle><circle r="5" cx="1139.55" cy="693.6" fill="#8b9ad9"></circle><circle r="5" cx="1258.03" cy="-101.7" fill="#8b9ad9"></circle><circle r="5" cx="1265.57" cy="59.71" fill="#8b9ad9"></circle><circle r="5" cx="1298.32" cy="197.75" fill="#8b9ad9"></circle><circle r="5" cx="1277.79" cy="707.56" fill="#8b9ad9"></circle><circle r="5" cx="1453" cy="79.22" fill="#8b9ad9"></circle><circle r="5" cx="1442.45" cy="255.64" fill="#8b9ad9"></circle><circle r="5" cx="1428.21" cy="383.88" fill="#8b9ad9"></circle><circle r="5" cx="1438.68" cy="536.48" fill="#8b9ad9"></circle><circle r="5" cx="1568.03" cy="-56.82" fill="#8b9ad9"></circle><circle r="5" cx="1576.85" cy="83.33" fill="#8b9ad9"></circle><circle r="5" cx="1605.79" cy="203.03" fill="#8b9ad9"></circle><circle r="5" cx="1582.53" cy="384.06" fill="#8b9ad9"></circle><circle r="5" cx="1554.34" cy="687.48" fill="#8b9ad9"></circle></g><defs><mask id="SvgjsMask1008"><rect width="1440" height="560" fill="#ffffff"></rect></mask><radialGradient id="SvgjsRadialGradient1009"><stop stop-color="#ffffff" offset="0.1"></stop><stop stop-color="#1735b3" offset="0.2"></stop><stop stop-color="rgba(23, 53, 179, 0)" offset="1"></stop></radialGradient></defs></svg>